<?xml version="1.0" encoding="utf-8"?>
<!-- Generator: Adobe Illustrator 21.1.0, SVG Export Plug-In . SVG Version: 6.00 Build 0)  -->
<svg version="1.1"
	 id="svg8" inkscape:version="0.92.2 5c3e80d, 2017-08-06" sodipodi:docname="blopper1_prototype1svg.svg" xmlns:cc="http://creativecommons.org/ns#" xmlns:dc="http://purl.org/dc/elements/1.1/" xmlns:inkscape="http://www.inkscape.org/namespaces/inkscape" xmlns:rdf="http://www.w3.org/1999/02/22-rdf-syntax-ns#" xmlns:sodipodi="http://sodipodi.sourceforge.net/DTD/sodipodi-0.dtd" xmlns:svg="http://www.w3.org/2000/svg"
	 xmlns="http://www.w3.org/2000/svg" xmlns:xlink="http://www.w3.org/1999/xlink" x="0px" y="0px" viewBox="0 0 595.3 841.9"
	 style="enable-background:new 0 0 595.3 841.9;" xml:space="preserve">
<style type="text/css">
	.st0{fill:none;stroke:#000000;stroke-width:1.000000e-03;stroke-miterlimit:10;}
</style>
<defs>
	
	
		<inkscape:perspective  id="perspective3699" inkscape:persp3d-origin="105 : 99 : 1" inkscape:vp_x="0 : 148.5 : 1" inkscape:vp_y="0 : 1000 : 0" inkscape:vp_z="210 : 148.5 : 1" sodipodi:type="inkscape:persp3d">
		</inkscape:perspective>
</defs>
<sodipodi:namedview  bordercolor="#666666" borderopacity="1.0" id="base" inkscape:current-layer="layer1" inkscape:cx="258.97554" inkscape:cy="943.18138" inkscape:document-units="mm" inkscape:pageopacity="0.0" inkscape:pageshadow="2" inkscape:window-height="855" inkscape:window-maximized="1" inkscape:window-width="1440" inkscape:window-x="0" inkscape:window-y="0" inkscape:zoom="1.2413039" pagecolor="#ffffff" showgrid="false" showguides="false">
	</sodipodi:namedview>
<path class="st0" d="M85.3,26.8H28.6V47v130h28.3V47h28.3c6.5,2.5,16.1,6.9,25.7,15c2.2,1.9,16.5,14.1,24,32
	c13.2,31.4-1.9,64.4-14,91c-5.8,12.6-15.3,30.3-31,49.2c11.7,1.3,23.3,2.6,35,3.8c5.9-12.1,13.4-27.7,22-46
	c22.1-47.3,25.6-57.3,25-71c-0.8-20.3-8.6-36.1-14-47c-4.4-8.9-10.5-21.2-23.4-32.8c-7.8-7.1-15.4-11.6-21-14.4
	C104.2,26.8,94.7,26.8,85.3,26.8z"/>
<circle class="st0" cx="43.1" cy="163.1" r="3.1"/>
<path class="st0" d="M-177,128"/>
<path class="st0" d="M258,203"/>
<path class="st0" d="M-119,257"/>
<path class="st0" d="M-14,219"/>
<rect x="70" y="83" class="st0" width="49.4" height="49.4"/>
</svg>
